<svg xmlns="http://www.w3.org/2000/svg" width="1920" height="1080" viewBox="0 0 1920 1080"><defs><linearGradient id="sky" x2="0" y2="1"><stop stop-color="#06192d"/><stop offset="1" stop-color="#376789"/></linearGradient><linearGradient id="snow" x2="0.3" y2="1"><stop stop-color="#d7f3ff"/><stop offset="1" stop-color="#426b89"/></linearGradient><radialGradient id="air"><stop stop-color="#8ddcff" stop-opacity=".22"/><stop offset="1" stop-color="#80cfff" stop-opacity="0"/></radialGradient><pattern id="flakes" width="180" height="160" patternUnits="userSpaceOnUse"><circle cx="22" cy="30" r="1.3" fill="#d8f7ff" opacity=".45"/><circle cx="123" cy="116" r="2" fill="#d8f7ff" opacity=".26"/><circle cx="78" cy="69" r=".8" fill="#fff" opacity=".6"/></pattern></defs><path fill="url(#sky)" d="M0 0h1920v1080H0z"/><ellipse cx="960" cy="400" rx="1000" ry="640" fill="url(#air)"/><path d="M0 760 180 382 275 466 406 252 563 516 690 440 868 710 1120 644 1290 341 1390 457 1570 200 1720 432 1800 362 1920 590V1080H0Z" fill="#527896"/><path d="m180 382 95 84 131-214 157 264-135-124-39 50-26-65-106 150Zm1110-41 100 116 180-257 150 232-123-119-43 63-30-27-150 193Z" fill="#caeafa" opacity=".72"/><path d="M0 642 120 566 262 756 421 640 639 858 876 838 1137 891 1420 605 1640 697 1812 477 1920 536V1080H0Z" fill="#1c405e"/><path d="M0 829Q275 729 588 917T1280 936Q1624 714 1920 853V1080H0Z" fill="url(#snow)"/><path d="M0 970Q440 811 832 1044M1320 1060Q1680 867 1920 903" fill="none" stroke="#e4f8ff" stroke-width="3" opacity=".22"/><path fill="url(#flakes)" d="M0 0h1920v1080H0z"/></svg>